<svg width="278" height="278" xmlns="http://www.w3.org/2000/svg" data-version="1" data-id="lg_mpUNWZDgJM5AVc8n3L" xml:space="preserve">

 <g>
  <g stroke="null" id="svg_1" data-padding="20">
   <g stroke="null" id="svg_2" transform="translate(10 4.964) scale(0.96429 0.96429)">
    <rect stroke="null" id="svg_3" fill="none" y="0.00999" x="290.28507" height="277.98" width="295.552"/>
    <path stroke="null" id="svg_4" d="m322.0111,215.78l-20.66,0l0,-172.2l20.66,0l0,74.29l83.4,0l0,-74.29l20.66,0l0,172.2l-20.66,0l0,-79.21l-83.4,0l0,79.21zm190.89,2.95q-18.2,0 -31.61,-6.88q-13.41,-6.89 -20.66,-19.19q-7.26,-12.3 -7.51,-28.78l21.65,0q0.25,14.76 9.96,25.46q9.72,10.7 28.17,10.7q16.97,0 26.2,-8.24q9.22,-8.24 9.22,-19.81q0,-9.59 -4.42,-16.11q-4.43,-6.52 -14.39,-11.56q-9.97,-5.04 -26.7,-10.46q-23.61,-7.13 -34.44,-19.43q-10.82,-12.3 -10.82,-30.5q0,-12.3 6.4,-22.14q6.39,-9.84 18.45,-15.5q12.05,-5.66 29.27,-5.66q16.24,0 28.41,6.03q12.18,6.02 18.95,16.85q6.76,10.82 6.76,24.84l-21.65,0q0,-6.88 -3.69,-13.53q-3.69,-6.64 -11.07,-11.07q-7.38,-4.42 -18.69,-4.42q-13.53,0 -22.64,6.52q-9.1,6.51 -9.1,17.83q0,8.61 4.06,14.51q4.06,5.91 13.41,10.71q9.35,4.79 25.34,10.2q15,4.92 25.7,11.44t16.49,16.12q5.78,9.59 5.78,23.86q0,14.02 -7.14,24.84q-7.13,10.83 -19.92,17.1q-12.8,6.27 -29.77,6.27m-308.784,-85.375c10.556,-13.756 19.295,-27.376 25.697,-40.134c17.547,-35.094 11.69,-52.005 3.654,-60.018c-5.152,-5.13 -12.258,-7.741 -21.11,-7.741c-19.977,0 -48.806,13.847 -79.042,37.069c-30.26,-23.222 -59.065,-37.07 -79.041,-37.07c-8.853,0 -15.958,2.611 -21.111,7.742c-8.013,8.035 -13.893,24.924 3.654,60.018a254,254 0 0 0 25.697,40.134a256.5,256.5 0 0 0 -25.674,40.134c-17.57,35.094 -11.69,51.983 -3.677,60.018c5.13,5.13 12.258,7.741 21.11,7.741c19.977,0 48.806,-13.847 79.042,-37.069c30.26,23.222 59.065,37.07 79.04,37.07c8.854,0 15.96,-2.611 21.112,-7.742c8.013,-8.035 13.87,-24.924 -3.654,-60.018a254,254 0 0 0 -25.697,-40.134m8.263,-89.756q5.81,0 8.263,2.452c3.836,3.836 4.29,16.367 -7.06,39.067a229.3,229.3 0 0 1 -21.247,33.732a402,402 0 0 0 -44.492,-44.56c28.035,-20.884 51.529,-30.69 64.536,-30.69m-31.553,89.755a379,379 0 0 1 -47.511,47.625a383.6,383.6 0 0 1 -47.534,-47.625a379,379 0 0 1 47.533,-47.625a383.6,383.6 0 0 1 47.534,47.625m-127.755,-48.237c-11.35,-22.7 -10.896,-35.23 -7.06,-39.067q2.452,-2.43 8.263,-2.452c13.007,0 36.502,9.807 64.536,30.668a404,404 0 0 0 -44.537,44.56c-8.65,-11.6 -15.89,-23.018 -21.247,-33.71m1.203,137.994q-5.811,0 -8.263,-2.452c-3.86,-3.836 -4.313,-16.366 7.037,-39.066c5.38,-10.692 12.644,-22.133 21.27,-33.733a404,404 0 0 0 44.492,44.56c-28.034,20.884 -51.506,30.69 -64.513,30.69m166.368,-2.45q-2.452,2.45 -8.263,2.45c-13.03,0 -36.524,-9.806 -64.536,-30.667a399.5,399.5 0 0 0 44.492,-44.56c8.67,11.6 15.89,23.018 21.247,33.732c11.35,22.7 10.896,35.208 7.037,39.044" fill="#e363aa"/>
    <path stroke="null" id="svg_5" d="m133.2931,113.22c-10.75,0.51 -19.2,9.374 -19.2,20.135c0,10.76 8.45,19.624 19.2,20.135c11.12,0 20.135,-9.015 20.135,-20.135s-9.015,-20.135 -20.135,-20.135" fill="#e363aa"/>
   </g>
   <path stroke="transparent" id="svg_6" d="m24.69578,0l560,0l0,278l-560,0l0,-278z" fill="transparent"/>
  </g>
 </g>
</svg>